<svg xmlns="http://www.w3.org/2000/svg" id="Layer_1" data-name="Layer 1" viewBox="0 0 1080 1080"><defs><style>      .cls-1 {        fill-rule: evenodd;      }      .cls-1, .cls-2 {        fill: #181a1a;        stroke-width: 0px;      }    </style></defs><path class="cls-1" d="M540,214.02c-179.93,0-326.05,145.74-326.05,326.05s146.12,326.05,326.05,326.05,326.05-146.12,326.05-326.05-146.12-326.05-326.05-326.05ZM415.67,635.48c-10.89,7.14-22.54,12.4-34.18,16.15-11.64,3.38-24.04,4.88-36.43,4.88-28.55,0-51.09-10.52-67.61-31.18-16.53-21.04-24.79-49.58-24.79-85.27s8.27-64.98,25.17-85.64c16.9-20.66,40.19-31.18,69.49-31.18,11.27,0,22.16,1.5,32.68,4.13,10.14,3.01,20.28,7.14,29.3,12.4v46.58c-9.39-7.14-19.16-12.4-28.55-15.78-9.39-3.76-18.78-5.26-28.17-5.26-17.28,0-30.8,6.39-40.57,19.16-9.39,13.15-13.9,31.55-13.9,55.59s4.51,42.07,13.52,55.22c9.01,12.77,22.16,19.53,39.06,19.53,4.51,0,8.64-.38,12.77-1.13,3.76-.75,7.51-2.25,10.52-3.76v-43.57h-27.05v-39.06h68.74v108.18ZM644.05,652.38h-41.69v-164.53l-39.06,121.33h-28.17l-39.06-121.33v164.53h-41.7v-225h55.97l38.69,120.2,39.06-120.2h55.97v225ZM760.12,574.25h-28.92v78.13h-43.95v-225h72.87c21.79,0,38.31,6.39,49.96,18.78,11.64,12.77,17.28,31.18,17.28,54.47s-5.63,41.69-17.28,54.47c-11.64,12.77-28.17,19.16-49.96,19.16ZM755.23,469.07h-24.04v63.11h24.04c8.64,0,15.4-2.63,19.91-8.26,4.51-5.26,7.14-13.15,7.14-23.29s-2.63-17.66-7.14-23.29c-4.51-5.26-11.27-8.27-19.91-8.27Z"></path><path class="cls-2" d="M540,185.1c-195.7,0-354.97,159.27-354.97,354.97s159.27,354.59,354.97,354.59,354.97-158.89,354.97-354.59-159.27-354.97-354.97-354.97ZM540,880.76c-187.81,0-340.7-152.88-340.7-340.7s152.88-340.7,340.7-340.7,340.7,152.88,340.7,340.7-152.88,340.7-340.7,340.7Z"></path><path class="cls-2" d="M1046.72,482.22c-15.78-139.74-87.15-259.94-189.32-341.45-102.17-81.13-235.14-123.58-374.88-107.43-140.11,15.78-260.31,87.15-341.45,188.94-81.51,102.17-123.58,235.52-107.81,375.26,16.15,140.11,87.15,260.31,189.32,341.45,102.17,81.14,235.14,123.58,375.25,107.81,139.74-16.15,259.94-87.15,341.45-189.32,81.13-102.17,123.21-235.14,107.43-375.25ZM932.53,852.22c-80.01,100.67-197.96,170.54-335.81,186.31-137.48,15.4-268.58-25.92-368.87-105.93-100.67-80.01-170.54-198.33-186.31-335.81-15.78-137.86,25.92-268.58,105.93-369.24C227.48,127.25,345.8,57.01,483.28,41.61c137.48-15.78,268.58,25.92,369.24,105.93,100.29,79.63,170.16,197.96,185.93,335.44,15.78,137.86-25.92,268.95-105.93,369.24Z"></path><path class="cls-2" d="M182.4,673.42c-2.25-5.63-4.88-10.52-7.89-15.02-3.38-4.51-7.13-9.01-11.27-12.77l-35.69,14.65,12.02,29.3,12.77-5.26-4.51-11.27,14.27-6.01c1.13,1.13,1.88,2.63,3,4.13.75,1.5,1.88,3.38,2.63,5.26,3.01,7.14,3.01,13.9.38,19.53-2.63,5.63-7.89,10.14-15.4,13.15-7.89,3.01-15.03,3.76-20.66,1.13-6.01-2.25-10.52-7.14-13.52-14.65-1.88-4.13-3-8.27-3.38-12.77-.75-4.51-.38-9.39,0-14.65l-15.03,6.39c-.38,4.51,0,9.39,1.13,14.27.75,4.88,2.25,9.77,4.13,14.65,5.26,12.39,12.77,21.04,22.54,25.54,9.77,4.51,20.66,4.51,32.68-.38,11.64-4.88,19.53-12.02,23.66-22.16,3.76-9.77,3.38-21.04-1.88-33.06ZM146.71,561.1c-8.26-6.01-18.78-8.64-31.55-7.14-12.77,1.5-22.54,6.39-28.92,14.27-6.39,8.27-9.01,18.41-7.14,31.18,1.5,12.77,6.01,22.16,14.27,28.55,8.27,6.01,18.78,8.64,31.55,7.14,12.77-1.5,22.54-6.39,28.92-14.65,6.39-7.89,8.64-18.41,7.14-30.8-1.5-12.77-6.39-22.16-14.27-28.55ZM141.08,606.56c-4.13,4.13-10.52,6.39-18.78,7.51-8.27,1.13-15.03,0-19.91-2.63-4.88-3.01-7.89-7.51-8.64-13.9-.75-6.01.75-11.27,5.26-15.03,4.13-4.13,10.14-6.39,18.78-7.51,8.26-1.13,14.65,0,19.91,2.63,4.88,3.01,7.89,7.51,8.64,13.9.75,6.01-1.13,11.27-5.26,15.03ZM151.6,466.82c-6.39-7.89-16.15-12.77-28.92-13.9-12.77-1.5-23.29.75-31.55,7.14-7.89,6.39-12.77,15.78-14.27,28.55-1.13,12.77,1.13,22.91,7.89,30.8,6.39,8.26,16.15,12.77,28.92,14.27,12.77,1.5,23.29-1.13,31.18-7.51,8.27-6.39,12.77-15.78,14.27-28.17,1.5-12.77-1.13-23.29-7.51-31.18ZM135.82,510.02c-4.88,2.63-11.64,3.76-19.91,2.63-8.26-.75-14.65-3.38-18.78-7.14-4.13-3.76-6.01-9.01-5.26-15.03.75-6.39,3.38-10.89,8.64-13.9,4.88-3.01,11.64-3.76,19.91-3.01,8.26,1.13,14.65,3.38,18.78,7.51,4.13,3.76,6.01,9.01,5.26,15.03-.75,6.39-3.38,10.89-8.64,13.9ZM177.89,378.17c-2.25-4.88-4.88-9.01-8.64-12.4-3.76-3.38-8.27-6.39-13.9-8.64-5.26-2.25-10.52-3.38-15.78-3.38-4.88-.37-9.76.75-14.65,3.01-5.26,2.25-10.14,5.64-13.9,10.52-3.76,4.88-7.89,12.77-12.77,24.04l-7.89,19.91,73.62,30.05,8.26-19.91c4.51-11.27,7.14-19.91,7.89-25.92.38-6.01-.38-12.02-2.25-17.28ZM160.24,409.73l-2.63,6.76-45.08-18.41,2.63-6.76c3.38-7.89,7.51-12.77,13.15-15.4,5.26-2.63,11.64-2.25,19.16.75,7.14,3,12.02,7.14,14.27,12.77,2.25,5.64,1.5,12.4-1.5,20.29ZM217.71,271.87c-1.5-2.25-3.01-3.76-5.26-5.63-2.25-1.5-4.13-2.25-6.76-3.01-2.25-.75-4.88-.75-7.51-.38-2.25.38-4.88,1.13-6.76,2.63-2.25,1.13-4.13,3.01-5.63,4.88-1.5,2.25-2.63,4.51-3.38,6.76-.38,2.63-.75,4.88-.38,7.51.38,2.63,1.13,4.88,2.63,6.76,1.13,2.25,3.01,4.13,4.88,5.64,2.25,1.5,4.51,2.63,7.14,3.38,2.25.38,4.88.75,7.14.38,2.63-.38,4.88-1.13,7.14-2.63,2.25-1.13,4.13-3.01,5.64-4.88,1.5-2.25,2.63-4.51,3.38-6.76.38-2.63.75-5.26.38-7.51-.38-2.63-1.5-4.88-2.63-7.14ZM212.45,784.23c-1.13-2.25-3-4.13-4.88-5.63-2.25-1.5-4.51-2.63-6.76-3.38-2.63-.38-5.26-.75-7.51-.38-2.63.38-4.88,1.5-7.13,2.63-2.26,1.5-4.13,3.01-5.64,5.26-1.5,1.88-2.63,4.13-3.01,6.76-.75,2.25-.75,4.88-.38,7.14.38,2.63,1.13,4.88,2.63,7.14,1.13,2.25,3.01,4.13,4.88,5.63,1.88,1.13,4.13,2.25,6.76,3.01,2.63.75,4.88.75,7.51.38,2.25-.38,4.88-1.13,7.14-2.63,2.25-1.13,4.13-3.01,5.64-4.88,1.5-2.25,2.25-4.51,3-6.76.75-2.63.75-4.88.38-7.51-.38-2.25-1.13-4.88-2.63-6.76ZM363.45,195.24l-43.2-66.49-21.78,13.9,7.51,45.45-38.31-25.92-22.16,13.9,43.2,66.86,16.53-10.52-31.55-48.83,38.69,26.29,10.89-7.14-7.89-45.83,31.55,48.83,16.53-10.52ZM397.63,96.83l-22.91,8.26-1.88,84.14,19.53-6.39v-15.4l30.43-10.52,9.39,12.02,19.53-6.76-54.09-65.36ZM392.38,151.67v-33.06l20.66,26.29-20.66,6.76ZM533.61,152.79l-8.64-78.88-19.53,2.25,6.01,53.71-34.56-50.71-22.92,2.25,8.27,78.88,19.53-2.25-5.64-53.71,34.56,50.71,22.92-2.25ZM612.5,80.3l-6.76,47.33c-.75,6.39-2.25,10.89-4.88,13.52-2.63,2.25-6.39,3.38-11.27,2.63s-7.89-2.63-9.77-5.64c-1.88-3-2.25-7.89-1.13-14.27l6.39-46.95-20.29-3-6.76,46.95c-1.5,11.27.38,19.91,5.26,26.29,4.88,6.01,12.77,9.77,24.41,11.27,11.27,1.88,20.29.38,26.67-4.51,6.39-4.51,10.52-12.4,12.02-23.66l6.39-46.95-20.28-3.01ZM714.67,123.5l4.88-14.65-52.59-17.66-25.17,75.13,19.16,6.76,10.89-31.93,31.18,10.14,4.88-14.65-31.18-10.14,4.88-14.27,33.06,11.27ZM755.99,127.63l-64.23,55.59,18.03,9.77,11.65-10.52,28.17,15.4-2.63,15.02,18.03,10.14,12.4-83.76-21.41-11.64ZM751.86,182.47l-19.16-10.14,25.17-22.54-6.01,32.68ZM863.04,203.13c-2.25-3.38-5.26-6.39-8.64-9.39-10.14-8.27-20.66-12.4-31.55-11.64-10.52.75-19.91,6.01-28.17,15.78-8.26,9.39-11.64,19.53-10.52,30.43,1.13,10.52,6.76,19.91,16.9,28.55,3.38,2.63,7.14,5.26,10.89,7.14,3.76,1.88,7.51,3,11.64,4.13l10.89-12.77c-4.51-.37-8.64-1.5-12.39-2.63-3.76-1.5-7.14-3.76-10.14-6.39-5.64-4.51-8.64-10.14-8.64-16.15-.38-6.39,2.25-12.77,7.51-18.78,5.26-6.39,11.27-10.14,17.28-10.89,6.39-.75,12.4,1.13,18.03,5.63,3.01,2.63,5.64,5.64,7.51,9.02,2.25,3.38,3.76,7.13,5.26,11.64l10.52-12.77c-1.5-3.76-3.76-7.51-6.39-10.89ZM890.84,230.55l-12.39,9.01,15.4,21.41-51.84,37.19,12.02,16.53,51.84-37.19,15.78,21.04,12.4-9.01-43.2-58.97ZM967.47,352.63l-42.82,21.41c-5.64,3.01-10.52,4.13-13.9,3.38-3.38-.75-6.39-3-8.64-7.51-2.25-4.13-2.25-7.89-.75-11.27,1.5-3,5.26-6.01,11.27-9.01l42.45-21.41-9.01-18.03-42.82,21.04c-10.14,4.88-16.15,11.27-18.78,18.78-2.25,7.51-1.13,16.53,4.13,26.67,5.26,10.14,11.64,16.53,19.16,19.16,7.51,2.63,16.15,1.5,26.29-3.38l42.82-21.41-9.39-18.41ZM995.64,441.65l-6.01-30.8-78.13,15.03,3.76,20.28,29.67-5.63,1.13,5.63c.75,3.01.38,6.01-.75,8.27-.75,2.25-3.38,4.51-6.76,7.14l-17.65,13.15,4.13,21.41,20.28-15.03c3.76-3,6.76-6.01,8.64-8.64,1.88-2.63,2.63-5.26,3.01-8.27,2.25,4.88,5.64,8.27,9.39,9.77,3.76,1.88,8.27,2.63,13.52,1.5,7.51-1.5,12.4-4.88,15.03-10.52,2.63-5.26,2.63-13.15.75-23.29ZM980.24,451.8c-1.5,2.25-3.76,3.38-7.14,4.13-3.76.75-6.39.38-8.64-1.13-1.88-1.5-3.01-4.51-3.76-8.64l-1.88-8.64,20.29-3.76,1.5,8.64c.75,4.13.75,7.14-.38,9.39ZM1004.65,505.51l-80.01,3.01,1.13,20.66,79.64-3.38-.75-20.28ZM1005.78,557.72l-79.26-8.64-1.88,19.16,54.09,6.01-57.47,22.54-2.63,22.91,79.26,8.64,2.25-19.16-54.47-6.01,57.85-22.54,2.25-22.91ZM976.48,670.79c-4.13-10.14-12.4-17.28-24.42-21.78-11.64-4.51-22.54-4.51-32.3,0-9.77,4.88-16.9,13.15-21.41,25.54-2.25,5.26-3.76,10.89-4.51,16.53-.75,5.63-1.13,11.27-.38,16.9l35.69,13.52,11.64-29.68-13.15-4.88-4.51,11.64-14.27-5.64c0-1.5,0-3.38.38-4.88.37-1.88,1.13-3.76,1.88-5.64,2.63-7.51,7.14-12.39,12.77-14.65,6.01-2.25,12.77-1.88,20.66,1.13,7.89,2.63,13.52,7.14,16.15,12.77,2.63,6.01,2.63,12.4-.38,20.28-1.5,4.13-3.76,7.89-6.39,11.64-3,3.38-6.01,6.76-10.14,10.14l15.4,6.01c3.38-3.38,6.39-7.14,9.01-11.27,2.63-4.13,4.88-8.64,6.76-13.9,4.88-12.4,5.26-24.04,1.5-33.81ZM896.85,785.36c-1.13-2.25-3.01-4.13-4.88-5.64-2.25-1.5-4.51-2.63-7.14-3.38-2.25-.37-4.88-.37-7.51-.37-2.25.37-4.51,1.5-6.76,2.63-2.25,1.13-4.13,3-5.64,5.26-1.5,1.88-2.63,4.13-3.38,6.76-.38,2.25-.75,4.88-.38,7.14.75,2.63,1.5,4.88,2.63,7.14,1.5,2.25,3.01,4.13,5.26,5.64,1.88,1.5,4.13,2.63,6.76,3.01,2.25.75,4.88.75,7.51.37,2.25-.37,4.88-1.13,6.76-2.25,2.25-1.5,4.13-3,5.63-5.26,1.5-1.88,2.63-4.51,3.38-6.76.38-2.25.75-4.88.38-7.51-.38-2.25-1.13-4.88-2.63-6.76Z"></path><path class="cls-2" d="M849.52,870.25l-27.42,23.29-11.64-13.9,24.79-21.04-9.77-11.64-25.17,21.04-9.39-11.27,26.29-22.54-9.77-11.64-42.07,35.69,51.09,60.48,42.82-36.44-9.77-12.02ZM778.15,920.58c-2.25,4.13-4.51,7.51-7.14,10.52-2.63,2.63-5.63,5.26-9.39,7.14-6.39,3.38-12.39,4.13-18.41,2.25-6.01-2.25-10.89-6.76-14.65-13.9-4.13-7.13-5.26-13.9-4.13-19.91,1.5-6.01,5.26-10.89,11.64-14.65,3.76-1.88,7.51-3.01,11.27-3.76,3.76-.75,7.89-1.13,12.4-.38l-7.89-14.65c-4.13.38-8.27.75-12.4,1.88-4.13,1.13-7.89,2.63-11.64,4.88-11.64,6.39-19.16,14.65-22.16,24.79-3.38,10.14-1.88,21.04,4.13,31.93,6.39,11.27,14.65,18.03,24.79,20.66,10.52,2.63,21.41,1.13,32.68-5.63,4.13-1.88,7.51-4.51,10.52-7.14,3-3.01,6.01-6.01,8.26-9.77l-7.89-14.27ZM673.72,907.81l-19.53,6.39,24.04,75.5,19.53-6.39-24.04-75.5ZM641.42,935.98l-2.25-15.02-72.12,11.27,2.25,15.4,25.92-4.13,10.14,63.11,20.28-3.38-10.14-63.11,25.92-4.13ZM533.24,945.37c4.13.38,7.89.75,11.64,2.26,3.76,1.5,7.51,3.38,10.89,6.01l.75-16.15c-3.76-2.25-7.51-3.76-11.64-4.88-4.13-1.13-8.27-1.88-12.77-1.88-13.15-.75-23.66,2.63-31.55,9.77-7.89,7.14-12.02,16.9-12.77,29.67-.38,12.77,3.01,22.91,10.52,30.43,7.51,7.51,18.03,11.64,31.18,12.02,4.13.38,8.64,0,12.77-.75,4.13-1.13,7.89-2.25,11.64-4.13l.75-16.53c-3.76,2.63-7.89,4.51-11.27,5.26-3.76,1.13-7.89,1.88-12.02,1.5-7.13-.38-12.77-2.63-16.9-7.51-3.76-4.88-5.64-11.27-5.64-19.53.38-8.27,2.63-14.65,7.14-19.16,4.13-4.51,10.14-6.39,17.28-6.39ZM453.23,922.83l-23.66-6.01-47.33,69.87,19.91,4.88,8.26-12.77,30.8,7.51,1.5,15.4,19.91,4.88-9.39-83.76ZM418.67,965.66l18.41-27.8,2.63,33.06-21.04-5.26ZM382.23,905.93c-2.63-5.26-8.64-10.52-18.03-15.4l-27.42-15.03-37.19,69.87,18.03,9.77,13.9-26.29,5.26,2.63c3.01,1.5,4.88,3.38,6.01,5.64,1.13,2.25,1.5,5.64,1.13,9.77l-.75,22.16,19.16,10.14,1.13-25.17c0-4.88-.38-9.01-1.13-12.02-1.13-3.01-2.63-5.64-4.51-7.51,5.26,1.13,9.77.75,13.52-1.13,3.76-1.5,6.76-4.88,9.39-9.39,3.38-6.76,4.13-12.77,1.5-18.03ZM361.2,916.83c-1.5,3.38-3.76,5.26-6.01,5.63-2.63.75-5.64,0-9.39-2.25l-7.51-4.13,9.77-17.66,7.51,4.13c3.76,1.88,6.01,4.13,6.76,6.39,1.13,2.25.75,4.88-1.13,7.89ZM298.09,846.96l-26.29-21.41-50.34,61.23,15.78,13.15,17.65-21.41,10.14,8.64c7.89,6.39,15.4,9.39,22.54,9.39,6.76,0,12.77-3,18.41-9.77,4.88-6.39,7.14-12.77,5.64-19.91-1.13-6.76-6.01-13.52-13.52-19.91ZM289.46,873.63c-2.26,2.63-4.88,4.13-7.51,4.13-3.01.38-6.01-1.13-9.01-3.38l-8.64-7.14,13.9-17.28,8.64,7.14c3,2.63,4.88,5.26,5.26,8.27.38,2.63-.37,5.26-2.63,8.26Z"></path></svg>