<svg xmlns="http://www.w3.org/2000/svg" id="Layer_1" data-name="Layer 1" viewBox="0 0 1080 1080"><defs><style>      .cls-1 {        fill-rule: evenodd;        stroke-width: 0px;      }      .cls-1, .cls-2 {        fill: #181a1a;      }      .cls-2 {        font-family: OpenSans-Bold, 'Open Sans';        font-size: 149.13px;        font-weight: 700;      }    </style></defs><path class="cls-1" d="M561.08,17.92l-.38,1.13-1.13-1.13c-14.65-1.5-32.31-2.25-48.08-.38-5.63-.75-12.77,0-19.91.38-129.22,10.14-248.29,76.25-322.67,188.57,5.64-.38,12.02,1.88,17.28-.38,12.77-18.03,27.42-35.31,43.57-52.21,13.9-13.15,27.05-25.92,42.07-35.69,13.9,9.02,29.68,16.53,43.2,25.17-16.9,20.28-33.81,40.94-46.58,63.11,3.76,1.88,10.89,1.13,16.15,0,13.52-19.53,28.17-39.07,45.45-56.34,23.29,8.64,45.83,17.28,69.49,23.66l2.25,2.25-13.52,30.43c6.01,1.13,9.76.75,15.78,0,4.51-9.01,8.26-18.78,13.9-27.8,31.18,6.76,64.23,10.52,97.29,11.64,4.51,3.76,1.13,11.64,3,16.15h14.27c1.5-4.88-.38-10.89,1.5-15.78,31.55-1.5,64.23-4.88,94.66-12.02l2.63.37,14.27,27.42c5.26,0,11.64,1.13,15.4-1.13l-13.52-30.43,1.13-1.13c24.79-6.39,47.7-15.78,71.37-25.17,16.9,17.28,32.31,37.94,46.58,57.85,6.01,0,11.65.75,16.15-1.13-6.39-11.27-14.65-22.91-23.29-33.06-7.14-10.14-14.65-19.16-23.66-28.55v-2.63l37.56-21.79,5.63-1.88c32.68,24.79,61.98,54.84,84.89,87.9,6.76,0,12.02,2.25,17.28-.38-72.12-107.81-191.2-176.92-320.04-187.06ZM327.44,130.61c-14.65-5.26-28.17-13.15-40.94-22.16v-1.13c33.81-24.79,71.74-43.2,111.56-55.97,1.5-1.5,2.63-3.38,4.88-3.38v1.13c4.13,1.13,7.51-3.76,11.27-.38,3,2.63,6.76,4.51,9.76,7.51-33.43,20.28-66.48,44.7-96.53,74.37ZM409.7,159.53l-1.88.38c-22.16-5.64-43.95-12.4-64.23-21.41l1.13-3.01c29.68-28.17,60.85-51.46,95.04-69.49,8.26,3.38,16.53,6.01,24.41,9.76l-1.5,4.13c-20.66,25.17-36.81,52.59-52.97,79.63ZM517.14,173.81c-15.03,2.25-28.55-.38-43.95-1.5-14.27-2.25-32.68-3.76-47.33-8.64,15.78-28.92,34.18-56.72,56.34-82.64l34.18,4.51c1.88,27.42.75,59.35.75,88.27ZM442.76,48.72c-3-2.25-8.26-3.38-8.64-7.14,57.1-13.15,124.33-13.9,181.05,0v1.13c-46.95,33.81-122.83,37.19-172.42,6.01ZM533.66,174.56c-1.13-28.17-.38-59.35,0-88.27l33.43-4.88c21.04,26.29,41.7,53.34,55.59,82.26-29.3,7.14-58.97,10.89-89.02,10.89ZM705.7,137.37c-21.04,9.01-42.82,17.28-65.74,22.16-16.9-27.8-34.93-55.97-55.59-83.01,7.51-4.13,16.53-7.14,24.79-11.64,34.93,17.66,69.11,42.45,97.66,70.99l-1.13,1.5ZM762.04,108.45l-37.19,20.66h-2.63c-28.55-28.55-61.98-53.34-95.79-72.87,1.13-3.76,6.39-6.39,10.14-9.01,45.45,11.64,87.9,31.55,126.59,58.97l-1.13,2.26ZM866.47,652.73c-22.54,32.3-51.09,63.48-82.26,87.52-1.13,1.88-4.13,1.13-5.26-.37-13.52-8.64-28.17-15.4-40.94-23.66,17.28-20.66,33.81-41.32,46.95-64.23h-16.9c-13.52,19.91-27.42,40.19-45.08,57.85-24.04-9.76-45.45-18.03-69.49-24.41l-2.63-2.25c3.38-10.52,10.52-20.66,12.77-31.18h-14.65l-14.65,28.55c-31.55-6.76-66.49-10.52-98.79-12.77-1.88-4.51.38-11.27-1.88-15.78h-13.9c-1.13,6.39,1.5,11.27-1.5,16.53-33.43,1.5-65.74,5.26-97.29,11.64l-14.27-28.17c-5.64,0-11.64-.75-15.03.75l13.15,31.18-1.5,1.5c-24.41,6.76-48.08,15.4-70.99,24.79l-2.25-1.13c-15.02-16.15-29.67-34.18-41.32-52.21-3.01-9.01-13.52-3.76-19.53-4.88,12.77,23.29,30.05,43.95,47.33,64.98-14.65,8.64-28.92,18.03-44.32,25.17-32.3-24.42-62.35-56.34-84.89-89.4-6.39-1.13-10.89-.75-17.28,0,38.69,60.1,99.16,113.06,162.27,144.24,0,0,0-.38.38-.38.75,0,1.5.75.75,1.5,42.45,20.66,87.52,35.31,135.6,41.69,165.28,21.41,323.42-48.83,414.7-187.06-4.51-.75-11.64-.75-17.28,0ZM641.84,700.06l1.88-.75c23.29,5.26,45.08,12.4,65.74,22.54-17.28,19.53-39.44,36.44-59.73,50.71-12.39,7.51-25.17,15.4-37.94,21.78l-23.29-10.14,1.88-3.76c19.16-25.92,36.43-52.21,51.46-80.38ZM535.92,684.29c30.8.75,61.23,3.76,89.77,10.52l.75,1.88c-15.02,28.55-33.81,55.97-54.47,81.89-9.01.75-17.65-2.63-27.04-3.38l-9.01-1.13c-1.13-31.18-1.88-58.6,0-89.78ZM431.87,693.68c28.17-5.26,57.1-9.39,87.15-9.39l.75,89.4c-11.27,2.63-23.66,2.63-34.56,5.26-22.16-25.92-40.57-53.71-55.97-83.01l2.63-2.25ZM345.1,722.6c21.04-10.14,43.2-17.66,65.74-23.29l2.25.38c15.4,28.92,34.93,56.34,54.47,84.14-7.51,4.13-16.9,6.76-24.42,10.89-35.31-17.28-69.49-41.69-98.04-70.62v-1.5ZM414.59,812.75c-45.07-11.65-87.14-31.55-125.84-58.97v-1.88c12.77-7.89,25.54-16.15,39.82-22.16,30.43,30.43,62.35,52.96,96.91,74.75-2.63,3.01-7.14,6.01-10.89,8.27ZM614.42,819.51c-57.09,12.39-120.58,12.77-177.67-.75-1.13-2.63,2.63-3.38,4.13-4.88,50.34-32.3,128.46-32.3,177.3,2.63,1.88,3.01-2.63,2.25-3.76,3.01ZM666.26,804.86l-25.17,7.89c-4.51-2.26-8.27-5.26-12.02-8.27l1.13-1.88c34.56-19.91,65.74-44.32,95.41-73.25,14.27,5.64,28.55,13.52,41.32,22.54-30.05,24.04-64.98,39.82-100.67,52.97ZM640.34,490.46c-6.01-45.08-48.83-85.64-92.78-96.91l-130.34-37.56-9.39-4.51c-4.51-3.76-7.14-8.64-6.01-14.27,10.14-17.65,33.81-12.02,51.46-11.64,37.94,5.26,76.63,18.03,98.79,52.21,23.66,0,51.09.38,77-.38,1.13-43.57-.38-81.51-1.13-125.09-24.04-.75-53.72-.75-78.13.38-1.13,6.39,1.13,15.4-1.5,21.41l-24.79-13.15c-59.35-24.79-142.36-27.42-196.08,11.27-35.31,25.17-45.83,70.62-36.81,110.81,7.14,37.94,43.57,66.11,78.88,79.26,47.7,16.9,98.04,29.3,146.49,45.45,4.88,2.25,11.27,7.14,10.14,12.77,0,4.88-4.88,7.51-8.64,9.39-50.71,13.9-105.55,3.38-142.37-34.93-4.13-5.26-6.76-11.27-11.27-16.53l-72.5.38c-1.13,42.82-1.88,92.03,0,134.1l80.76-.38,1.13-25.54c9.01,4.51,18.41,9.77,27.42,14.27,55.97,23.29,128.09,28.55,183.68,0,40.19-22.16,61.98-64.99,55.97-110.81ZM215.13,337.2l53.34-.38c.75-30.43,1.13-62.73-.38-90.15l-203.22-.38-33.43.38c-.38,28.17-.38,60.85,0,89.4,18.41.75,35.68,0,53.34,1.5v179.93l-.38,7.14-53.34,1.13c-1.13,29.67-1.13,58.22,0,87.15h237.4v-87.15c-17.66-1.13-37.56.38-54.84-1.5l.75-185.56.75-1.5ZM1034.38,342.46c-9.76-25.54-29.67-48.08-54.09-64.61-69.87-44.32-176.54-47.33-248.67-7.14-39.44,19.91-65.36,59.35-73.62,100.29-14.27,67.24-10.52,146.87,40.94,197.21,60.48,52.59,148.37,64.23,226.51,42.82,3.76-.75,15.4-3.76,23.66-8.26l2.25-.75c24.04-10.14,47.33-26.67,64.61-48.83,39.82-58.22,42.45-145.37,18.41-210.73ZM907.04,493.09c-2.63,12.77-11.27,25.92-24.79,30.43-21.41,9.77-50.71,7.14-70.62-4.13-16.53-11.64-18.78-31.18-21.04-49.58-1.5-36.44-4.13-75.13,6.01-108.18,8.26-20.66,30.05-25.92,49.96-27.8,21.41,0,41.7,3.38,54.47,20.28,8.27,12.02,7.89,28.17,9.39,42.45-.75,30.05,1.88,65.74-3.38,96.54Z"></path><text class="cls-2" transform="translate(87.45 1019.44)"><tspan x="0" y="0">22000:2018</tspan></text></svg>